<svg width="32" height="32" viewBox="0 0 32 32" fill="none" xmlns="http://www.w3.org/2000/svg">
<path d="M24.4361 9.71467H13.7107C13.0278 9.71714 12.3737 9.99073 11.8924 10.4753C11.4111 10.9598 11.1419 11.6157 11.1441 12.2987V25.7493C11.1441 27.176 12.2934 28.3333 13.7107 28.3333H24.4361C25.119 28.3309 25.7731 28.0573 26.2544 27.5727C26.7357 27.0882 27.0048 26.4323 27.0027 25.7493V12.2987C27.0027 10.872 25.8534 9.71467 24.4361 9.71467Z" stroke="black" stroke-width="2" stroke-linecap="round" stroke-linejoin="round"/>
<path d="M20.856 9.71467V6.25067C20.856 5.56533 20.5853 4.908 20.104 4.424C19.8664 4.18427 19.5838 3.99393 19.2723 3.86395C18.9609 3.73397 18.6268 3.66692 18.2893 3.66667H7.56398C6.88398 3.66667 6.23065 3.93867 5.75065 4.424C5.26833 4.90962 4.99754 5.56622 4.99731 6.25067V19.7013C4.99731 20.3867 5.26798 21.044 5.74931 21.528C6.23065 22.0133 6.88265 22.2853 7.56398 22.2853H11.144" stroke="black" stroke-width="2" stroke-linecap="round" stroke-linejoin="round"/>
</svg>
