<svg width="16" height="16" viewBox="0 0 16 16" fill="none" xmlns="http://www.w3.org/2000/svg">
<path d="M13.5356 2.46449C12.7414 1.66918 11.7024 1.16466 10.5863 1.03234C9.47016 0.900015 8.34199 1.14761 7.38384 1.73517C6.42569 2.32272 5.69346 3.21597 5.30529 4.27077C4.91712 5.32556 4.89566 6.48038 5.24438 7.54887L1.79313 11.0001C1.69987 11.0926 1.62593 11.2028 1.5756 11.3241C1.52528 11.4455 1.49959 11.5756 1.50001 11.707V13.5001C1.50001 13.7653 1.60536 14.0197 1.7929 14.2072C1.98043 14.3948 2.23479 14.5001 2.50001 14.5001H4.50001C4.63261 14.5001 4.75979 14.4474 4.85356 14.3537C4.94733 14.2599 5.00001 14.1327 5.00001 14.0001V13.0001H6.00001C6.13261 13.0001 6.25979 12.9474 6.35356 12.8537C6.44733 12.7599 6.50001 12.6327 6.50001 12.5001V11.5001H7.50001C7.56569 11.5002 7.63073 11.4873 7.69143 11.4622C7.75213 11.4371 7.80729 11.4003 7.85376 11.3539L8.45126 10.7557C8.95137 10.9184 9.47409 11.0009 10 11.0001H10.0063C10.9947 10.9989 11.9605 10.7048 12.7818 10.1549C13.6032 9.60504 14.2431 8.82407 14.6208 7.91067C14.9985 6.99728 15.0969 5.99243 14.9038 5.02308C14.7107 4.05374 14.2346 3.16338 13.5356 2.46449ZM11.25 5.75012C11.0522 5.75012 10.8589 5.69147 10.6944 5.58159C10.53 5.4717 10.4018 5.31553 10.3261 5.1328C10.2504 4.95007 10.2306 4.74901 10.2692 4.55503C10.3078 4.36105 10.403 4.18286 10.5429 4.04301C10.6828 3.90316 10.8609 3.80792 11.0549 3.76933C11.2489 3.73075 11.45 3.75055 11.6327 3.82624C11.8154 3.90192 11.9716 4.0301 12.0815 4.19455C12.1914 4.359 12.25 4.55234 12.25 4.75012C12.25 5.01533 12.1446 5.26969 11.9571 5.45722C11.7696 5.64476 11.5152 5.75012 11.25 5.75012Z" fill="white"/>
</svg>
